<svg id="Layer_1" data-name="Layer 1" xmlns="http://www.w3.org/2000/svg" width="65" height="100" viewBox="0 0 65 100"><defs><style>.cls-1{fill:#99c0d4;}.cls-2{fill:#006193;}.cls-3{fill:#fff;}</style></defs><path class="cls-1" d="M27.28357,48.0857V46.61453a2.00588,2.00588,0,0,1,2-2h8.28035V48.0857"/><path class="cls-2" d="M27.18357,48.0857c-.26166-1.4772-.326-3.22728,1.38392-3.859a14.149,14.149,0,0,1,2.55119-.28494c2.14763-.08308,4.29692-.56192,6.44514-.25877l1.02978.14256a15.67323,15.67323,0,0,1-.92969,4.26013h-.2a13.37957,13.37957,0,0,1-.83142-3.47107l.93134.93133c-2.14817.30334-4.29754-.17566-6.44513-.25867-.90142-.01366-2.22981-.35511-2.84472.11363-.86178.4639-.76922,1.86348-.89036,2.6848l-.2,0Z"/><polyline class="cls-1" points="33.263 63.57 21.918 63.57 21.918 57.898 36.625 57.898"/><path class="cls-2" d="M33.26267,63.67011c-3.98258.21926-7.96542.41655-11.94873.55017-.04073-1.04-.2382-6.10784-.27832-7.13171a58.28023,58.28023,0,0,1,15.58893.7091v.19989a49.24144,49.24144,0,0,1-7.35339.867,65.0029,65.0029,0,0,1-7.35341-.11656l.85041-.8503L22.54685,63.57l-.62909-.629c3.78168.13184,7.5633.32141,11.34491.52918v.2Z"/><path class="cls-2" d="M31.25254,36.9405a2.3715,2.3715,0,0,1,2.665,2.22857l.13508,1.08905a4.85039,4.85039,0,0,1-.70009,4.35639h-.19994a4.84988,4.84988,0,0,1-.69991-4.35638l.13491-1.08912a1.66147,1.66147,0,0,0-1.335-2.02851v-.2Z"/><polyline class="cls-1" points="38.169 48.086 18.851 48.086 18.851 54.678 47.755 54.678"/><path class="cls-2" d="M38.16862,48.18567c-6.439.17737-12.87806.40418-19.317.523l.6228-.6228.14429,6.59216-.76709-.76715c4.26373-.09129,10.24874-.3446,14.45189-.2466,4.81734.11684,9.63466.33565,14.452.91384v.2c-9.47412,1.15866-19.37262.99369-28.90387.66708l-.78369-.02029c.02065-.1779.14-6.94869.16068-7.33906l.01388-.63427c6.64221.11625,13.28416.35092,19.92615.53418v.2Z"/><path class="cls-1" d="M37.807,54.24938V39.42057h3.37872V51.62149h6.56972v4.58968a2.00588,2.00588,0,0,1-2,2H41.23484"/><path class="cls-2" d="M37.707,54.24939c-.15739-5.1253-.35522-10.25071-.47473-15.37628.26755.01707,3.584-.1044,3.95338-.09632l.62749-.01537c.1088,4.28644.19337,8.57377.3504,12.86l-.97772-.97772c1.93579-.049,4.66046-.09128,6.56951-.02005l1.03535.02658-.03736.97138c-.05439,1.00537-.12293,3.62149-.2,4.59486a2.68576,2.68576,0,0,1-2.70383,2.57962L44.2971,58.6659c-1.02076-.11951-2.04151-.202-3.06226-.35474v-.2c1.46852-.20173,3.08966-.35941,4.57184-.49231a1.33683,1.33683,0,0,0,1.1505-1.40541l-.0819-1.52959-.11767-3.06225.99774.9978c-1.09491.02814-2.18982.04559-3.28473.04364l-4.29779-.08337.03515-.95826c.14911-4.06689.23237-8.13385.33393-12.20074l.64374.64374-3.37854-.08234.5614-.5614c-.11969,4.94293-.30994,9.8858-.46149,14.82873Z"/><path class="cls-1" d="M31.11634,58.14923H20.85148a2.00588,2.00588,0,0,1-2-2V54.67806h28.904"/><path class="cls-2" d="M31.11631,58.24921c-1.38137.0511-8.06752.29446-9.29669.33979l-.92963.034a2.54261,2.54261,0,0,1-2.608-2.55038c-.02652-.29636-.01656-1.08839-.03828-1.39446l-.01613-.59062.624-.01721c7.00946-.10128,14.71175-.72181,21.67791-.21554,2.40864.14315,4.81733.366,7.226.72329v.2c-9.44469,1.478-19.37953.7324-28.90387.5076l.60761-.60751c.012.47964-.07412,1.28424-.02313,1.749A1.51466,1.51466,0,0,0,20.89,57.67547l.92962.034,1.85937.06793,7.43732.27185v.2Z"/><path class="cls-2" d="M41.18577,39.32056c2.85173-.2605,5.71043-.44446,8.56744-.61345-.023.49217-.14378,3.29811-.16925,3.85473a22.29272,22.29272,0,0,1-1.72907,9.07025l-.19885-.02118a17.50585,17.50585,0,0,1-.3612-3.12317c-.20337-2.98929.64293-6.19285,1.09377-9.13782l.665.7395q-3.93726-.22155-7.8678-.56885v-.2Z"/><polygon class="cls-1" points="53.5 63.877 53.5 66.483 44.608 66.483 44.608 59.737 47.827 59.737 53.5 63.877"/><path class="cls-2" d="M53.58884,63.83143c.00564.08333.1843,2.91977.18287,2.89269l-.2721.01563q-4.77161.27538-9.54559.45251l-.0307-.70941c-.07994-2.13732-.26-5.57944-.37544-7.70818a40.25275,40.25275,0,0,1,4.65278-.01244,41.64915,41.64915,0,0,1,5.38818,5.0692Zm-.17828.09057a51.72406,51.72406,0,0,1-6.169-3.382l.58557.191c-1.07312.05341-2.14624.062-3.21936.0152l1.00879-1.00879-.17828,3.37274-.14618,3.37268-.68433-.68426q4.44589.16956,8.89185.42761l-.25671.25672.16766-2.56092Z"/><rect class="cls-1" x="12.24045" y="46.20953" width="15.04312" height="1.87616"/><path class="cls-2" d="M12.16972,46.1388c3.76106-.188,11.346-.52566,15.11379-.67326l.721-.03011c.015.50381.06326,2.12053.0791,2.65015l.02088.70013a63.904,63.904,0,0,1-15.86389-.27861l-.464-.06447a22.37515,22.37515,0,0,1,.39313-2.30383Zm.14141.14142c.1095.70733.26374,1.28357.35065,1.80542l-.4212-.42127a65.87306,65.87306,0,0,1,15.0429-.37873l-.79992.79994.056-1.87592.744.7439-14.97235-.67334Z"/><path class="cls-2" d="M15.716,50.30964a9.803,9.803,0,0,1-1.73773.7c-.28967.08489-.57929.34783-.8689.2-.22281-.09381-.88077-.55145-.86893-1.1a1.8,1.8,0,0,1,.86893-.9c.28961-.14789.57923.11511.8689.2a8.92129,8.92129,0,0,1,.86889.3c.28962.13464.57923.24024.86884.4v.2Z"/><circle class="cls-3" cx="36.62456" cy="60.36166" r="6.12133"/><path class="cls-2" d="M30.60325,60.36164c.07783,7.42991,11.37388,7.46761,11.34263-.00011-.31817-6.74786-11.00746-6.80114-11.34263.00011Zm-.2,0c-.26107-6.11439,6.85-9.61469,11.24989-5.02832a7.02628,7.02628,0,0,1-.24058,9.81641,6.52113,6.52113,0,0,1-11.00931-4.78809Z"/><circle class="cls-3" cx="36.62456" cy="60.36166" r="3.75002"/><path class="cls-2" d="M32.97452,60.36164c-.04637,4.30461,6.755,4.32258,6.6-.00008-.23133-3.608-6.39378-3.7231-6.6.00008Zm-.2,0c-.17491-6.378,8.39851-6.22371,8.40008.00007-.42555,5.57279-8.10332,5.6703-8.40008-.00007Z"/><circle class="cls-3" cx="21.91769" cy="63.67327" r="2.80972"/><path class="cls-2" d="M19.208,63.67328c-.07161,3.12144,4.94383,3.03482,4.71941-.00006-.25882-2.37847-4.5278-2.55319-4.71941.00006Zm-.2,0c-.2839-5.12956,6.59414-4.96866,6.51946.00009-.38338,4.32885-6.26952,4.43616-6.51946-.00009Z"/><path class="cls-1" d="M16.95013,16.73286a2.00588,2.00588,0,0,1,2-2H46.38a2.00588,2.00588,0,0,1,2,2v2.739a2.17664,2.17664,0,0,1-1.19535,2.27993L38.6943,24.842"/><path class="cls-2" d="M16.85014,16.73285a2.1643,2.1643,0,0,1,1.96411-2.19329l3.02734-.10669,6.03027-.2c4.00925-.09648,14.21911-.34756,18.09076-.49a3.07417,3.07417,0,0,1,3.45527,3.20278c.002.479-.02754,1.76635-.03785,2.26129.05273,1.18654-.45311,2.98653-1.87959,3.36842-2.90158.8967-5.79458,1.71863-8.772,2.36063l-.06842-.18792c2.68375-1.41852,5.44359-2.65168,8.22736-3.82781.59391-.34983.50255-.96548.49265-1.7133l-.03159-1.50759a7.69036,7.69036,0,0,0-.04615-1.22059,1.143,1.143,0,0,0-1.33974-.75587c-3.82873-.14145-14.13064-.39466-18.09074-.49l-6.03027-.2L18.839,14.93879a1.86329,1.86329,0,0,0-1.78882,1.79406Z"/><path class="cls-2" d="M37.11057,7.05884a2.3715,2.3715,0,0,1,2.665,2.22858l.13507,1.08905a4.85037,4.85037,0,0,1-.70009,4.35639H39.0106a4.84989,4.84989,0,0,1-.69992-4.35638l.13491-1.08911a1.66149,1.66149,0,0,0-1.335-2.02852v-.2Z"/><path class="cls-2" d="M36.59641,17.36567a6.19213,6.19213,0,0,1,.7,1.26489c.08489.21081.34789.42163.2.63245a1.463,1.463,0,0,1-1.1.63247,1.6409,1.6409,0,0,1-.9-.63247c-.14789-.21082.11511-.42164.2-.63245a5.40862,5.40862,0,0,1,.3-.63245c.13464-.21081.24029-.42163.4-.63244Z"/><path class="cls-2" d="M38.62028,17.36567a6.1943,6.1943,0,0,1,.7,1.26489c.08489.21081.34789.42163.2.63245a1.463,1.463,0,0,1-1.1.63247,1.64093,1.64093,0,0,1-.9-.63247c-.14789-.21082.11511-.42164.2-.63245a5.41023,5.41023,0,0,1,.3-.63245c.13464-.21081.2403-.42163.4-.63244Z"/><path class="cls-2" d="M40.64414,17.36567a6.19383,6.19383,0,0,1,.7,1.26489c.08489.21081.34789.42163.2.63245a1.463,1.463,0,0,1-1.1.63247,1.64065,1.64065,0,0,1-.9-.63247c-.14789-.21082.11511-.42164.2-.63245a5.40862,5.40862,0,0,1,.3-.63245c.13464-.21081.24027-.42163.4-.63244Z"/><path class="cls-2" d="M18.85014,14.73285c-.22183-3.539-.42-7.07838-.55463-10.61828l.65472-.02881c2.17383-.06646,4.3546-.23489,6.52521-.273A4.04267,4.04267,0,0,1,28.83157,7.0179a40.77409,40.77409,0,0,1,.17442,7.88823l-.198.028A31.51305,31.51305,0,0,1,27.60972,11.147c-.31348-1.27454-.60114-2.55268-.81995-3.84058l.02887.13672a2.46435,2.46435,0,0,0-1.732-1.82288c-1.05585-.0301-4.337-.21207-6.13627-.273l.63059-.63066c-.13239,3.33874-.32208,6.67749-.53076,10.01623Z"/><polyline class="cls-1" points="22.6 17.617 38.099 23.917 37.299 30.016 19.35 30.016"/><path class="cls-2" d="M22.63731,17.52424C27.28581,19.209,33.805,21.5473,38.35915,23.27575l.48055.17744-.05512.55335L38.17509,30.131l-.07288.73205-.80347.03687a87.61539,87.61539,0,0,1-17.94891-.78374v-.2a78.51634,78.51634,0,0,1,8.97443-.84528,87.82783,87.82783,0,0,1,8.97448.06153l-.8761.76874.9903-6.07452.42529.73059c-2.54925-1.1333-5.11139-2.235-7.65014-3.39429L22.562,17.70954l.07532-.1853Z"/><circle class="cls-3" cx="19.34983" cy="23.36655" r="6.64963"/><path class="cls-2" d="M26.09946,23.36652A7.05147,7.05147,0,0,1,14.18814,28.528a7.55789,7.55789,0,0,1-.24026-10.56343c4.72842-4.91788,12.41123-1.17587,12.15158,5.402Zm-.2,0c-.06773-5.21559-7.0688-7.42753-10.55159-4.00181C11.4555,22.83545,14.18249,29.4648,19.35,29.5161c3.3549.24463,6.7265-2.64539,6.54948-6.14958Z"/><circle class="cls-3" cx="19.34983" cy="23.36655" r="4.07366"/><path class="cls-2" d="M23.52348,23.36652c-.31288,6.0974-8.60887,5.99925-9.04736-.00011.02058-6.65909,9.19756-6.795,9.04736.00011Zm-.2,0c-.21008-4.13545-7.0219-4.0298-7.24734.0001-.14249,4.75015,7.28223,4.7269,7.24734-.0001Z"/><circle class="cls-3" cx="37.29883" cy="26.96397" r="3.05221"/><path class="cls-2" d="M40.451,26.964c-.26317,4.75527-6.61091,4.64854-7.00445-.00008-.06015-5.29232,7.26656-5.44493,7.00445.00008Zm-.2,0c-.19641-2.85107-4.95456-2.696-5.20438,0-.2155,3.35435,5.26692,3.43647,5.20438,0Z"/><path class="cls-2" d="M11.00028,26.51636a7.10627,7.10627,0,0,1,1.4-.7c.23328-.08483.46662-.34783.7-.19994a1.44325,1.44325,0,0,1,.7,1.1,1.6659,1.6659,0,0,1-.7.9c-.23334.14783-.46668-.11517-.69995-.2a6.30627,6.30627,0,0,1-.7-.3c-.23327-.13471-.46661-.2403-.69995-.4v-.2Z"/><path class="cls-1" d="M34.52562,91.35888h8.50023l7.043-2.073a2.00588,2.00588,0,0,0,2-2v-7.3757a2.00588,2.00588,0,0,0-2-2H38.24632a4.66638,4.66638,0,0,0-3.123,1.44061l-5.90708,6.83685"/><path class="cls-2" d="M34.52561,91.25886c-.04044.00113,8.85837-.27534,8.40086-.23815l6.98623-2.26515a.38459.38459,0,0,1,.15625-.02251,1.42945,1.42945,0,0,0,1.29278-.93123,9.53277,9.53277,0,0,0,.04848-2.132l-.106-4.75464c-.02194-.2648-.00233-.89995-.03249-1.1159a1.183,1.183,0,0,0-1.21941-1.023c-3.36683.08944-6.7354.23385-10.10363.14873-.36514.00384-1.399-.04116-1.7543-.04562a3.97838,3.97838,0,0,0-2.1771.78591c-.47132.38416-1.14005,1.16892-1.58682,1.602-6.61649,6.67861-6.79639,6.62169-1.1029-.953a23.46337,23.46337,0,0,1,1.57658-1.94308A5.52572,5.52572,0,0,1,38.76,76.92342l1.18872-.02815c3.17052-.07891,6.34039.0409,9.50934.13343a2.96809,2.96809,0,0,1,3.38919,2.62561c.03449.47064-.02162.83321-.01372,1.26091l-.10594,4.75465a8.34492,8.34492,0,0,1-.24223,2.58532,2.59072,2.59072,0,0,1-2.41634,1.5835l.15588-.02246L43.12546,91.697l-.05883.01556-.0409-.00122-8.50012-.25244v-.2Z"/><path class="cls-2" d="M44.43107,78.07728a28.94584,28.94584,0,0,1-.7-3.23188,3.86814,3.86814,0,0,1-.2-1.6159,3.17745,3.17745,0,0,1,.9-1.61591h.2A2.857,2.857,0,0,1,45.331,74.8454a28.92149,28.92149,0,0,1-.69991,3.23188Z"/><path class="cls-2" d="M47.89579,81.60761a13.1621,13.1621,0,0,1,2.08075-.7c.3468-.08489.6936-.34789,1.0404-.2.2391.07806,1.064.555,1.04045,1.1a2.01712,2.01712,0,0,1-1.04045.9c-.3468.14788-.6936-.11512-1.0404-.2a13.1644,13.1644,0,0,1-2.08075-.7v-.2Z"/><path class="cls-2" d="M47.89579,84.61811a13.16108,13.16108,0,0,1,2.08075-.7c.3468-.08489.6936-.34789,1.0404-.2.2391.07807,1.064.555,1.04045,1.1a2.01733,2.01733,0,0,1-1.04045.9c-.3468.14789-.6936-.11511-1.0404-.2a13.1644,13.1644,0,0,1-2.08075-.7v-.2Z"/><path class="cls-2" d="M35.96018,78.67927a9.38853,9.38853,0,0,1-1.69037-.70038c-.25921-.13922-.64441-.15247-.73907-.45624a1.46692,1.46692,0,0,1,.18014-1.37551,1.7764,1.7764,0,0,1,1.2341-.03874c.30378.09467.317.47986.45624.73914a8.50725,8.50725,0,0,1,.3855.80975c.10406.29444.22858.56836.31488.88056l-.14142.14142Z"/><path class="cls-2" d="M34.90623,75.09321a9.38433,9.38433,0,0,1-.70038,1.69031c-.13916.25927-.15247.64446-.45624.73913a1.4669,1.4669,0,0,1-1.3755-.18014,1.77587,1.77587,0,0,1-.03868-1.23411c.09466-.30377.47979-.317.73907-.45623a8.51747,8.51747,0,0,1,.80981-.38556c.29444-.104.5683-.22852.8805-.31482l.14142.14142Z"/><path class="cls-2" d="M21.68674,91.54743a17.84817,17.84817,0,0,1-2.47924.7c-.41321.08483-.82642.34783-1.23963.2a2.34919,2.34919,0,0,1-1.23962-.9v-.2a1.81715,1.81715,0,0,1,2.47922-.7,17.86015,17.86015,0,0,1,2.47928.7v.2Z"/><path class="cls-2" d="M21.68674,87.03168a17.84817,17.84817,0,0,1-2.47924.7c-.41321.08483-.82642.34783-1.23963.2a2.34927,2.34927,0,0,1-1.23962-.9v-.2a1.81715,1.81715,0,0,1,2.47922-.7,17.86015,17.86015,0,0,1,2.47928.7v.2Z"/><path class="cls-2" d="M18.15641,86.93171a22.05424,22.05424,0,0,1,.7,2.78912c.08489.46484.34789.92969.2,1.39453a2.65926,2.65926,0,0,1-.9,1.39459h-.2a2.22268,2.22268,0,0,1-.69994-2.7891,22.04281,22.04281,0,0,1,.69993-2.78915Z"/><path class="cls-2" d="M25.73521,80.55457a28.32116,28.32116,0,0,1-1.93281-2.6372c-.29309-.4524-.749-.83271-.82922-1.37934a3.12929,3.12929,0,0,1,.17664-1.82452l.18286-.08094a2.79988,2.79988,0,0,1,1.93271,2.63724,28.29607,28.29607,0,0,1,.65269,3.20383l-.18287.08093Z"/><circle class="cls-3" cx="27.94908" cy="87.53093" r="7.41878"/><path class="cls-2" d="M35.46787,87.531a7.82285,7.82285,0,0,1-13.22438,5.70527A8.33209,8.33209,0,0,1,22.00325,81.585c5.20481-5.39875,13.72717-1.31076,13.46462,5.94592Zm-.2,0c-.03779-5.83515-7.93316-8.47612-11.86465-4.54564a6.59342,6.59342,0,0,0-.2403,9.33189c4.099,4.47111,12.29452,1.43834,12.10495-4.78625Z"/><circle class="cls-3" cx="27.94908" cy="87.53093" r="4.54486"/><path class="cls-2" d="M32.59391,87.531a4.99488,4.99488,0,1,1-9.98974-.00012c.04588-7.28488,10.10581-7.41426,9.98974.00012Zm-.2,0c-.24875-4.75141-7.934-4.655-8.18973.0001-.12548,5.37156,8.20712,5.344,8.18973-.0001Z"/><circle class="cls-3" cx="46.84021" cy="91.54445" r="3.40526"/><path class="cls-2" d="M50.34544,91.54444c-.28086,5.21873-7.30124,5.11546-7.71057-.00009-.04124-5.76077,7.94269-5.907,7.71057.00009Zm-.2,0c-.20263-3.29-5.67056-3.15786-5.91049,0-.19182,3.85726,5.99427,3.84615,5.91049,0Z"/></svg>