<svg id="Layer_1" data-name="Layer 1" xmlns="http://www.w3.org/2000/svg" width="50" height="50" viewBox="0 0 50 50"><defs><style>.cls-1,.cls-3,.cls-4{fill:#fff;}.cls-1,.cls-2,.cls-3,.cls-4{stroke:#006193;stroke-miterlimit:10;}.cls-1{stroke-width:2px;}.cls-2{fill:none;}.cls-4{stroke-width:2.43px;}</style></defs><path class="cls-1" d="M21.86509,26.20451A14.64918,14.64918,0,0,1,7.21591,11.55533,14.64918,14.64918,0,0,1,21.86509,26.20451Z"/><path class="cls-1" d="M27.75831,21.01962A14.64918,14.64918,0,0,1,42.40749,6.37044,14.64918,14.64918,0,0,1,27.75831,21.01962Z"/><line class="cls-2" x1="24.55793" y1="36.55849" x2="24.55793" y2="14.35582"/><line class="cls-2" x1="27.75831" y1="21.01962" x2="42.40749" y2="6.37044"/><line class="cls-3" x1="21.86509" y1="26.20451" x2="7.00755" y2="11.34696"/><line class="cls-3" x1="15.84177" y1="20.18118" x2="15.84177" y2="14.55941"/><line class="cls-3" x1="34.15908" y1="14.68037" x2="40.31627" y2="14.68037"/><path class="cls-4" d="M4.27715,44.96152a29.30654,29.30654,0,0,1,41.4457,0"/></svg>