<svg id="Layer_1" data-name="Layer 1" xmlns="http://www.w3.org/2000/svg" width="50" height="50" viewBox="0 0 50 50"><defs><style>.cls-1,.cls-2{fill:#fff;stroke:#006193;stroke-miterlimit:10;}.cls-1{stroke-width:2px;}.cls-3{fill:#006193;}</style></defs><rect class="cls-1" x="5.14689" y="7.87348" width="39.70622" height="34.25305" rx="5"/><line class="cls-2" x1="4.95988" y1="19.28122" x2="45.04012" y2="19.28122"/><line class="cls-1" x1="15.83664" y1="12.22359" x2="15.83664" y2="3.62408"/><line class="cls-1" x1="34.16336" y1="12.22359" x2="34.16336" y2="3.62408"/><rect class="cls-3" x="14.65349" y="23.5922" width="2.8156" height="2.8156"/><rect class="cls-3" x="19.12285" y="23.5922" width="2.8156" height="2.8156"/><rect class="cls-3" x="23.5922" y="23.5922" width="2.8156" height="2.8156"/><rect class="cls-3" x="28.06156" y="23.5922" width="2.8156" height="2.8156"/><rect class="cls-3" x="32.53091" y="23.5922" width="2.8156" height="2.8156"/><rect class="cls-3" x="37.00027" y="23.5922" width="2.8156" height="2.8156"/><rect class="cls-3" x="10.18413" y="28.26051" width="2.8156" height="2.8156"/><rect class="cls-3" x="14.65349" y="28.26051" width="2.8156" height="2.8156"/><rect class="cls-3" x="19.12285" y="28.26051" width="2.8156" height="2.8156"/><rect class="cls-3" x="23.5922" y="28.26051" width="2.8156" height="2.8156"/><rect class="cls-3" x="28.06156" y="28.26051" width="2.8156" height="2.8156"/><rect class="cls-3" x="32.53091" y="28.26051" width="2.8156" height="2.8156"/><rect class="cls-3" x="37.00027" y="28.26051" width="2.8156" height="2.8156"/><rect class="cls-3" x="10.18413" y="32.92881" width="2.8156" height="2.8156"/><rect class="cls-3" x="14.65349" y="32.92881" width="2.8156" height="2.8156"/><rect class="cls-3" x="19.12285" y="32.92881" width="2.8156" height="2.8156"/><rect class="cls-3" x="23.5922" y="32.92881" width="2.8156" height="2.8156"/><rect class="cls-3" x="28.06156" y="32.92881" width="2.8156" height="2.8156"/></svg>