<svg id="Layer_1" data-name="Layer 1" xmlns="http://www.w3.org/2000/svg" width="65" height="100" viewBox="0 0 65 100"><defs><style>.cls-1{fill:#ffcf99;}.cls-2{fill:#ff8700;}</style></defs><path class="cls-1" d="M51.44214,62.34173c-.84109,7.15981-14.64111,3.51949-15.76735,7.60211s-6.33509-4.36418-7.88367.84468,0,11.12161-1.54858,11.40317-5.49041,1.267-5.49041-6.19432,0-11.54394-6.47587-18.58294S8.92662,41.64709,8.92662,36.86058s.1956-8.23643,1.66363-9.83792,2.73566-6.17866,5.63207-8.43786,7.41481-2.14334,8.921-.05793a22.8786,22.8786,0,0,1,5.677-.75307A4.71179,4.71179,0,0,1,35.049,20.14886s3.563-2.17607,6.47369-.42186S44.723,25.18862,44.723,25.18862a4.42893,4.42893,0,0,1,5.3294.11586c3.07019,2.02748,3.7074,4.22876,3.7074,4.22876s-4.9239-6.1404-7.1831-2.6647-3.64948,9.55816-.98478,10.19537a13.4313,13.4313,0,0,1,4.46048,1.96956s.92685,5.09768-3.18606,5.619-5.85075-1.39028-6.83553,1.67991-5.44525-1.10063-8.22581-3.30191S25.317,38.57,22.82614,39.96032l.23171-4.75012,2.89641-.92685s1.91163,3.01227,5.27147,2.6647,2.54884.69514,2.54884.69514-1.04271,1.67992,2.433,1.33235,4.866-1.56406,4.866-1.56406,1.622-3.76534,2.72263-6.60382,1.15856-5.7349-1.96956-7.12518-5.677-1.27442-6.1404,7.18311l-.811-8.28374a3.83812,3.83812,0,0,0-3.70741,3.82326c-.23171,3.76534-2.31713,4.57633-2.31713,4.57633s3.328-7.40318.824-8.04621-6.7327-.93266-8.934.68933a2.57348,2.57348,0,0,0-.86892,3.59155s-7.18311-1.79578-7.53067,3.997-1.10064,10.42708,3.88119,14.07656,6.95139,4.17083,8.51545,10.13744,3.244,10.54294,6.66174,9.0368,2.49092-7.35688,5.619-4.28669,6.37211,5.27147,9.674,4.055S51.44214,62.34173,51.44214,62.34173Z"/><path class="cls-2" d="M20.76706,82.53028a75.81366,75.81366,0,0,0-.25586-10.24707c-.37323-3.36292-.94971-6.76978-2.89136-9.395-1.90246-2.81378-4.00671-5.54285-5.92444-8.45081C9.85581,51.4398,7.686,48.13641,7.82821,44.44c.01331-3.43685.04792-6.89877.34662-10.372.343-2.67847.346-5.52859,2.01206-7.89769,1.9375-2.23619,5.23736-2.12154,7.75782-2.43988,1.77689-.1065,3.18191-.99857,4.86587-1.33479a16.08951,16.08951,0,0,1,5.34173-.42023,4.44859,4.44859,0,0,1,2.22122.68254c.88149,1.09724.46226,2.56053.26849,3.69927-.081,2.82653-1.81171,7.08019-4.94414,8.60963a9.643,9.643,0,0,1-3.30228,1.03151l.32129-.64936a7.4717,7.4717,0,0,1,.515,5.11017l-.49384-.442C30.54628,37.97452,35.79462,46.07159,37.77635,52.48l-.18861.06613a24.64063,24.64063,0,0,0-5.28766-8.98389C29.783,40.96051,25.7958,39.543,22.35969,40.92478a7.03226,7.03226,0,0,0-.70532-5.69588l.61928-.09938c4.41368-.48123,7.16007-4.79337,7.22063-8.97472a6.11034,6.11034,0,0,0,.12635-2.34492c-.08662-.3543-.17052-.27508-.43365-.35974a12.852,12.852,0,0,0-6.04376.29648c-1.683.40232-3.31132,1.3723-5.01662,1.469-3.05656.40317-6.95652.31218-7.47774,4.0342C9.612,34.57592,9.852,40.16548,9.92831,45.61322c.41906,2.8241,1.97767,5.31085,3.45607,7.75149,2.15545,3.70115,5.01565,7.07845,6.88137,11.03218,1.49177,4.16281,1.464,8.66439,1.24023,13.00685-.11105,1.72468-.27127,3.442-.54007,5.148l-.19885-.02148Z"/><path class="cls-2" d="M18.11667,43.11188a6.16628,6.16628,0,0,1,1.79-2.39551c.3871-.31817.73622-.7962,1.27254-.8449a2.223,2.223,0,0,1,1.66491.4l.04853.194a3.37919,3.37919,0,0,1-.96424,1.26038c-.32574.28259-.79693.234-1.21191.37048-.406.1402-.81232.30292-1.22217.48645a8.31222,8.31222,0,0,0-1.21631.6474l-.16131-.11829Z"/><path class="cls-2" d="M20.4122,24.01374a5.06106,5.06106,0,0,0-.1385,2.17542c.07411.07439.03358-.07624.08424-.07185.89275.082,1.93064.23566,2.83545.22443,1.97074-.01721,4.85867-.14716,6.86441-.21832l.03451.197c-1.10552.3512-2.22485.632-3.348.92316-1.71354.42031-3.43173.72076-5.19586.974a3.34243,3.34243,0,0,1-2.18915-.3674c-1.67146-1.05326-.5071-3.327.89388-3.9576l.159.12114Z"/><path class="cls-2" d="M22.3577,35.6612a3.4264,3.4264,0,0,1-2.69721.4622c-.475-.10862-1.07159-.18058-1.35449-.63011a1.702,1.702,0,0,1-.19611-1.61572l.17487-.09711A4.51737,4.51737,0,0,1,19.633,33.997c.31628.08313.4024.45148.66363.65833a3.33383,3.33383,0,0,0,.87677.51263,4.42271,4.42271,0,0,0,1.13794.29871l.04633.19452Z"/><path class="cls-2" d="M11.9639,25.38813c1.25863-4.3871,4.58194-8.956,9.56839-9.226,2.03255-.30006,4.76321,1.05519,4.85224,3.39546a4.447,4.447,0,0,1-.75242,2.82637l-.18927-.06464c-.04767-1.5204-.306-3.23388-1.77845-3.76715a7.93336,7.93336,0,0,0-4.48088-.20689c-3.22074,1.03992-5.53749,4.11783-7.03086,7.1089l-.18875-.06607Z"/><path class="cls-2" d="M25.58658,19.22846a4.865,4.865,0,0,1,3.89117-1.72278,9.69078,9.69078,0,0,1,4.37665.39343c3.03093,1.52884,2.056,5.52,2.27532,8.27083a35.22425,35.22425,0,0,1-.62237,8.57048c-.6909,2.74884-1.89783,5.92888-4.57184,7.30981l-.11932-.16058c1.79479-2.15151,2.29456-4.85729,2.72908-7.53635.37786-2.6896.81291-5.43575.985-8.231-.09252-2.31652,1.16419-5.89416-1.12833-7.33153a9.10319,9.10319,0,0,0-3.92385-.66872,4.60989,4.60989,0,0,0-3.72279,1.21379l-.16875-.10734Z"/><path class="cls-2" d="M26.11789,36.81a17.06731,17.06731,0,0,0,2.9505.16675,2.816,2.816,0,0,1,2.86317.75677l.02379.19849a2.31383,2.31383,0,0,1-3.13767.62491,7.76386,7.76386,0,0,1-2.79294-1.5699l.09315-.177Z"/><path class="cls-2" d="M28.25137,35.47449a12.71361,12.71361,0,0,0,1.69721-.23884c.26-.04991.49133-.30352.71331-.16375.12932.07362.81566.52578.90373.98985a1.40627,1.40627,0,0,1-.83414,1.00893c-.34705.16034-.687-.1203-.99115-.24859a3.86659,3.86659,0,0,1-1.57838-1.1687l.08942-.1789Z"/><path class="cls-2" d="M14.2659,24.74048a3.97782,3.97782,0,0,1-.73829-.78844c-.0913-.13288-.36053-.25733-.21935-.40131a1.73552,1.73552,0,0,1,1.07916-.46321,1.76473,1.76473,0,0,1,.91858.36805c.15423.12995-.102.27942-.18024.42041a3.98425,3.98425,0,0,1-.66.85505l-.19983.00945Z"/><path class="cls-2" d="M28.13992,20.33136a5.92577,5.92577,0,0,1,1.80737-.54737c.30408-.04155.64844-.25255.91773-.04815a1.64178,1.64178,0,0,1,.66437,1.06806c-.11644.51909-.83737.84134-1.04606.89522-.28726.09337-.50338-.2076-.76071-.331-.45675-.20688-1.13241-.58772-1.58271-.8368v-.2Z"/><path class="cls-2" d="M28.20511,19.15827a6.72073,6.72073,0,0,1,2.94677-.5392,1.94146,1.94146,0,0,1,2.37691,1.89466l-.13411.14832c-1.45964.19825-1.5262.21077-2.58121-.47921a14.66129,14.66129,0,0,0-2.58224-.82627l-.02612-.1983Z"/><path class="cls-2" d="M39.41843,21.19263a5.26285,5.26285,0,0,1,2.342-.13215c.39271.07008.90565.03151,1.19837.40541a1.50293,1.50293,0,0,1,.2879,1.48877l-.161.11865a4.84023,4.84023,0,0,1-1.25152.04639c-.295-.019-.41559-.3758-.675-.57642-.25385-.19336-.53357-.38428-.82721-.57794-.29065-.20935-.60816-.37879-.93109-.57349l.01758-.19922Z"/><path class="cls-2" d="M48.20889,26.833a6.80324,6.80324,0,0,1,2.23938.26562c.36182.10432.84314.099,1.08887.47742a1.45243,1.45243,0,0,1,.16955,1.49531l-.17645.09411a5.074,5.074,0,0,1-1.22778-.016c-.29907-.04584-.40027-.42657-.64185-.65814L48.141,27.02112l.06793-.18811Z"/><path class="cls-2" d="M35.34231,20.36628c1.75191-2.12919,4.991-1.95978,7.15923-.5426,1.54716.80918,3.30221,2.08627,3.35521,4.06313.10777,1.77252-1.28948,5.75274-1.65709,7.52661-.91728,3.23453-1.67674,6.54954-3.41551,9.61564-.8984,1.64-2.32953,3.40347-4.501,3.18349a8.99189,8.99189,0,0,1-4.97924-1.54366l.08942-.17889a10.26333,10.26333,0,0,0,5.85761.03829,1.61237,1.61237,0,0,0,.61419-.51583c2.18125-3.28658,3.4061-7.34341,4.80361-11.06369.40735-1.52318,2.02567-5.502,2.0389-7.01947-.058-2.27482-2.88941-3.74012-4.75937-4.501a4.50944,4.50944,0,0,0-4.45411,1.06815l-.15186-.13019Z"/><path class="cls-2" d="M32.12009,42.69129c.22141-.93575.50049-1.85979.7658-2.77844a7.83732,7.83732,0,0,0,2.44892.99,6.31415,6.31415,0,0,1,2.70544.80059,4.53245,4.53245,0,0,1-.87848,1.73687h-.2A3.80528,3.80528,0,0,1,36.2222,42.11l.83941.83948a2.69841,2.69841,0,0,1-2.3449-.39226,6.98883,6.98883,0,0,1-1.86194-1.44228l.86981-.16479c-.4632.61621-.92694,1.23212-1.4256,1.83057l-.17889-.08942Z"/><path class="cls-2" d="M36.30246,37.39521a4.75245,4.75245,0,0,1,1.14166-.44593c.18286-.04339.40723-.25994.53577-.077a1.56985,1.56985,0,0,1,.2325,1.187,1.66309,1.66309,0,0,1-.69924.75775c-.19751.10462-.29919-.19024-.44244-.31189a4.75479,4.75479,0,0,1-.81495-.91546l.0467-.19446Z"/><path class="cls-2" d="M45.38748,25.03949c3.85021-1.86105,8.84565,1.80845,9.72237,5.6469a16.72439,16.72439,0,0,1,.354,4.1573c-.04517,5.45673-.23768,10.8927-.64521,16.34632a41.54163,41.54163,0,0,1-1.20553,8.21642,58.99336,58.99336,0,0,0-1.88541,7.75184c-.3088,2.592-.26353,5.40008-.494,8.04626-.16216,2.35428-.40075,5.82666-.68916,8.151l-.2-.00341c-.3563-3.91013-.53342-8.309-.64436-12.23157a25.56482,25.56482,0,0,1,.81958-8.3388,53.285,53.285,0,0,0,2.70614-11.746c.60143-5.37252.99444-10.80092,1.23815-16.21248a15.91885,15.91885,0,0,0-.13434-3.95917c-.65207-3.61277-5.19209-7.1968-8.84556-5.64968l-.0967-.175Z"/><path class="cls-2" d="M35.2742,43.32007a23.52079,23.52079,0,0,1,1.84839,2.32782c.27917.40137.72.72785.788,1.22693a2.76852,2.76852,0,0,1-.21026,1.68878l-.18152.084a2.3581,2.3581,0,0,1-1.84825-2.32784,23.51593,23.51593,0,0,1-.57791-2.91569l.18153-.084Z"/><path class="cls-2" d="M36.35721,43.84742a7.86245,7.86245,0,0,1,1.48578.73669c.22277.14258.58465.17395.62573.462a1.43993,1.43993,0,0,1-.38937,1.27419,1.697,1.697,0,0,1-1.1724-.0248c-.272-.10328-.22314-.4632-.31335-.71186a7.048,7.048,0,0,1-.23535-.77441c-.05134-.27972-.12543-.54138-.15723-.83685l.15619-.12494Z"/><path class="cls-2" d="M37.60837,43.22A26.2614,26.2614,0,0,1,42.217,47.783a3.71831,3.71831,0,0,1,.33713,2.34938l-.18457.0769a5.37609,5.37609,0,0,1-2.8569-3.11115c-.71221-1.2298-1.397-2.48435-2.05833-3.75054l.15406-.12756Z"/><path class="cls-2" d="M39.1478,42.88489a22.65563,22.65563,0,0,1,4.031,1.9226,5.72528,5.72528,0,0,1,1.85808,1.30506,3.74089,3.74089,0,0,1,.871,2.27771l-.16175.11768A6.15769,6.15769,0,0,1,42.19865,46.072c-.92782-.8997-2.21445-2.14582-3.15333-3.01534l.10248-.17177Z"/><path class="cls-2" d="M41.42367,42.88892a10.095,10.095,0,0,1,1.85029.4447c.2901.1001.68261.05451.83892.345a1.48579,1.48579,0,0,1,.09153,1.40877,1.81728,1.81728,0,0,1-1.24143.22765c-.32635-.04859-.41644-.43335-.609-.67236a9.18712,9.18712,0,0,1-.55145-.75416c-.16388-.27972-.34448-.5357-.4939-.83593l.115-.1637Z"/><path class="cls-2" d="M45.14615,44.36054a14.17408,14.17408,0,0,1,2.27691-.17188c.372.00226.78577-.16864,1.10334.05994a2.08706,2.08706,0,0,1,.84588,1.12933l-.04681.19446a2.08709,2.08709,0,0,1-1.26721.62061c-.38678.059-.67737-.2815-1.00971-.44879A14.17821,14.17821,0,0,1,45.09933,44.555l.04682-.19441Z"/><path class="cls-2" d="M48.45676,42.09992a8.37992,8.37992,0,0,1,2.16.48626c.34222.1283.79828.125,1.00671.47755a1.70156,1.70156,0,0,1,.22474,1.40423l-.14655.13611a2.54488,2.54488,0,0,1-1.31.03528c-.33026-.07276-.43811-.4682-.66467-.72339-.22565-.25226-.455-.51386-.68243-.78735-.21875-.28846-.45966-.55042-.682-.85224l.09412-.17645Z"/><path class="cls-2" d="M49.67544,40.36731c.54548-.217,1.09033-.42606,1.63574-.59748.26252-.0819.50373-.35277.75849-.21886.18283.07876.83.50247.89408,1.01432a1.55025,1.55025,0,0,1-.77476.98214c-.29357.16461-.60186-.08942-.88867-.17761a5.72531,5.72531,0,0,1-1.65192-.80432l.027-.19819Z"/><path class="cls-2" d="M40.99655,38.50837c.23645,1.623.79584,3.78768,2.39712,4.43625,1.53284.57549,3.25015-.42372,4.19117-1.70541,2.03421-3.07361,3.1571-6.59979,5.50555-9.57365l.18674.07108a20.91074,20.91074,0,0,1-1.32056,5.60254c-1.37348,3.348-4.63773,8.3154-8.99393,6.50789-1.89046-1.13094-2.1834-3.38986-2.16611-5.33568l.2-.003Z"/><path class="cls-2" d="M43.66415,38.49225c.78418-.08612,1.53669-.2323,2.2464-.33557.36011-.05774.70368-.31109,1.04291-.17218a2.59025,2.59025,0,0,1,1.13.81751l.02643.19824a1.874,1.874,0,0,1-1.11224.98376c-.41034.15839-.8172-.11676-1.20471-.23162A6.9243,6.9243,0,0,1,43.60732,38.684l.05683-.19173Z"/><path class="cls-2" d="M42.20749,42.67865c-.90022-2.26588,1.72186-1.88713,3.10656-1.82609.71812-.0111,1.32386.68482,1.82581,1.13972a3.06085,3.06085,0,0,1-.82147,1.21329h-.2a2.84108,2.84108,0,0,1-.73365-1.01733l.54865.78338a1.7965,1.7965,0,0,1-1.18707-.22845,7.60146,7.60146,0,0,0-1.90406-.8733c-.18-.05645-.39837.37226-.43921.76691l-.19555.04187Z"/><path class="cls-2" d="M19.04147,19.49347a6.50882,6.50882,0,0,1,1.20965-.86749c.20582-.1131.38807-.40271.62464-.285a1.45342,1.45342,0,0,1,.79654,1.00353,1.64741,1.64741,0,0,1-.53219.97889c-.19751.17554-.44928-.05621-.67756-.11145a5.7218,5.7218,0,0,1-.69073-.21051c-.2348-.10455-.46582-.1803-.70392-.30969l-.02643-.19825Z"/></svg>