<svg id="Layer_1" data-name="Layer 1" xmlns="http://www.w3.org/2000/svg" width="50" height="50" viewBox="0 0 50 50"><defs><style>.cls-1{fill:#fecd00;}.cls-2{fill:#cf151b;}</style></defs><path class="cls-1" d="M38.73964,41.71872c-4.671,5.28681-18.45488,7.53738-28.504.42227-12.90961-9.1405-7.26895-43.34965,19.748-36.26615C43.3249,9.37276,48.28115,28.90572,41.81876,38.80806l-1.97962-1.29661C44.36989,30.0069,42.8805,13.88973,32.987,8.69039,13.07862-1.77195-5.94748,29.78033,13.61435,42.141c7.41455,4.68506,19.82678,2.53169,23.951-1.68037Z"/><path class="cls-1" d="M35.0839,33.42576c4.02316-7.27926-3.90124-21.477-13.19491-18.61743C8.43354,18.94847,9.657,41.46926,27.24832,38.09557A11.65059,11.65059,0,0,0,31.773,35.99422L33.41478,37.601a12.86212,12.86212,0,0,1-7.95549,2.74314c-21.89979.657-19.94447-22.9181-5.36322-27.233,13.50619-3.99673,22.23812,13.0146,16.83839,21.50741Z"/><path class="cls-1" d="M28.75957,32.90614c-3.49641,3.12447-9.83958,2.8845-11.93866-3.08129-3.56642-10.13615,9.38532-15.01652,13.32716-6.94514a10.4068,10.4068,0,0,1,.50038,7.62253L28.99112,29.1576a8.19251,8.19251,0,0,0-.157-5.52707c-2.25248-6.56972-13.8864-3.2674-10.04812,6.29787,1.50514,3.75093,5.86206,4.01634,8.50163,1.71717Z"/><path class="cls-1" d="M23.48255,24.84868c-3.5102,1.44538-1.40586,4.03763,1.03433,3.47451S26.67356,23.53474,23.48255,24.84868Z"/><polygon class="cls-2" points="24.092 26.581 24.294 30.551 27.591 27.052 24.092 26.581"/><polygon class="cls-2" points="24.517 28.323 43.466 43.585 44.61 42.71 25.572 27.388 24.517 28.323"/><polygon class="cls-2" points="46.894 41.994 43.126 42.465 42.605 46.022 43.48 46.56 43.948 43.218 46.827 42.908 46.894 41.994"/><polygon class="cls-2" points="48.274 43.336 44.506 43.807 43.986 47.364 44.86 47.902 45.328 44.56 48.207 44.249 48.274 43.336"/><polygon class="cls-2" points="49.654 44.678 45.886 45.149 45.366 48.705 46.241 49.243 46.709 45.901 49.587 45.591 49.654 44.678"/></svg>