<svg id="Layer_1" data-name="Layer 1" xmlns="http://www.w3.org/2000/svg" width="50" height="50" viewBox="0 0 50 50"><defs><style>.cls-1{fill:#cf151b;}</style></defs><path class="cls-1" d="M31.15538.44184C42.34759,3.19525,48.429,14.36175,47.94344,25.25979l1.81446.34136L46.646,28.25256,44.25347,25.096l1.67331.03486c.74447-10.40561-7.40836-21.22028-15.62029-22.36748Z"/><path class="cls-1" d="M43.171,41.78505c-14.06062,12.80172-25.56994,7.44933-32.46863,2.66142L9.467,45.81861l-.64588-4.03693,3.94038-.40156-.90013,1.411c5.01281,4.28831,19.517,9.27732,29.53813-2.96858Z"/><path class="cls-1" d="M.34511,28.53688C.0769,17.01408,7.57054,5.37769,17.86017,2.08868L17.71532.24808l3.37273,2.31057L18.66673,5.69314l-.40379-1.62422C8.02457,6.07057,1.9975,20.39766,3.037,28.62393Z"/><polygon class="cls-1" points="7.181 36.395 9.246 21.378 10.935 6.362 13.187 5.235 12.437 19.501 17.505 20.252 19.194 35.644 17.692 35.831 15.252 25.132 15.065 42.777 13.537 42.125 13.261 33.024 9.676 31.646 9.124 37.437 7.181 36.395"/><polygon class="cls-1" points="11.33 20.454 13.981 14.755 16.378 16.111 14.555 20.891 11.33 20.454"/><path class="cls-1" d="M21.53378,45.46472a124.1176,124.1176,0,0,1-.55152-26.87207c-4.54755-6.1864.918-15.755,10.20331-12.50134L30.726,7.47009c-7.44565-2.02225-11.43353,4.39734-7.90527,9.10028l4.749,2.74219c5.12739,2.33124,7.076,9.90619,1.21039,15.10614l-.16833-1.94586c3.30918-3.03342,2.71515-10.16669-1.01111-10.87769-.50592,3.27784,1.266,12.45649,2.48187,24.48212L28.336,46.353a60.58637,60.58637,0,0,0-2.21386-15.15251l-3.40112.09192c-.07026,6.88444.14983,10.78935.37542,14.69291Z"/><polygon class="cls-1" points="22.821 17.673 24.475 13.077 26.957 13.997 26.222 19.42 22.821 17.673"/><polygon class="cls-1" points="23.372 14.64 27.233 16.111 27.057 17.382 22.913 15.651 23.372 14.64"/><path class="cls-1" d="M38.7996,15.835c4.61158,4.04454,3.06462,9.91211-.13057,14.4317l-1.01111-2.02227c3.63906-3.30919,2.73438-9.97992.14606-10.63287l2.2061,22.03116-1.47075,1.37882L36.609,30.45056,33.29979,31.4617l-.73537,13.60442-1.6546.45961-.36768-26.32056c-2.97242.10739-4.56714-.44986-12.22559,2.69669l-.09192-1.65461C25.36941,17.83569,31.90391,15.84265,38.7996,15.835Z"/><polygon class="cls-1" points="32.465 16.555 32.373 12.786 35.514 12.51 36.249 17.29 32.465 16.555"/><polygon class="cls-1" points="31.952 14.364 36.149 13.445 36.149 14.732 32.12 15.283 31.952 14.364"/></svg>