<svg id="Layer_1" data-name="Layer 1" xmlns="http://www.w3.org/2000/svg" width="50" height="50" viewBox="0 0 50 50"><defs><style>.cls-1{fill:#fff;}.cls-1,.cls-2,.cls-3{stroke:#006193;stroke-miterlimit:10;}.cls-1,.cls-3{stroke-width:2px;}.cls-2,.cls-3{fill:none;}.cls-3{stroke-dasharray:1;}</style></defs><circle class="cls-1" cx="21.58246" cy="26.20327" r="12.61794"/><path class="cls-2" d="M22.19687,13.556a17.88594,17.88594,0,0,1,0,25.29453"/><path class="cls-2" d="M20.968,38.85054a17.88594,17.88594,0,0,1,0-25.29453"/><path class="cls-2" d="M30.50469,17.30433a12.618,12.618,0,0,1-17.84447,0"/><path class="cls-2" d="M12.66022,35.10222a12.618,12.618,0,0,1,17.84447,0"/><line class="cls-2" x1="21.58246" y1="38.82122" x2="21.58246" y2="13.58533"/><line class="cls-2" x1="34.2004" y1="26.20327" x2="8.96451" y2="26.20327"/><path class="cls-3" d="M26.50375,6.86174A19.95732,19.95732,0,0,1,34.7344,41.20862"/><path class="cls-2" d="M28.73889,47.05967c-.79555-1.55029.20627-6.50865.20627-6.50865s4.6123,2.07741,5.40785,3.62771a3.15508,3.15508,0,0,1-5.61412,2.88094Z"/><circle class="cls-2" cx="31.54412" cy="45.61563" r="1.3137"/><path class="cls-2" d="M24.73754,4.38013c0,1.74251-3.15508,5.69655-3.15508,5.69655s-3.15509-3.954-3.15509-5.69655a3.15509,3.15509,0,0,1,6.31017,0Z"/><circle class="cls-2" cx="21.58246" cy="4.38415" r="1.3137"/></svg>