<svg id="Layer_1" data-name="Layer 1" xmlns="http://www.w3.org/2000/svg" width="50" height="50" viewBox="0 0 50 50"><defs><style>.cls-1{fill:#fecd00;}.cls-2{fill:#cf151b;}</style></defs><path class="cls-1" d="M7.91325,48.27577C4.61139,31.152,8.23107,20.73294,6.44176,13.14448,2.60165,17.24975,3.02453,23.29079,4.61139,31.152l-1.66434.5698C1.28181,25.158-.05467,18.46063,6.07389,10.23756L15.05959,8.95c4.6148,3.17134,9.60827,5.0955,15.2935,1.98732v1.99628c-5.98122,2.66485-10.32183,1.91291-14.55775-1.06764-.58037,7.98919,2.56822,20.99541,5.61757,35.858h-3.2264c-.69761-8.86635-2.4385-17.55045-4.17928-21.35421l-4.71931.9286c-.81174,4.19527-.12381,12.47878.90167,20.79349Z"/><polygon class="cls-1" points="8.815 11.175 7.886 5.051 11.215 4.684 12.31 9.861 8.815 11.175"/><polygon class="cls-1" points="7.455 7.295 12.071 6.546 12.446 7.794 7.707 8.667 7.455 7.295"/><path class="cls-1" d="M44.77148,12.47058a348.188,348.188,0,0,1-1.25543,36.72363l-2.04022-.15692c.98694-6.52014,1.53473-13.09833.15692-19.93121l-4.70813.62775s-1.76355,12.93054-1.25549,19.14648l-2.04022.3139a256.33452,256.33452,0,0,1,1.41247-37.22644c-7.05084,3.3086-8.16083,7.25116-1.41251,10.17v1.94629c-5.52815-.43684-11.9273-8.94554,1.56942-14.4384,0,0,7.03087,3.93436,9.63625-.03094,4.85139-7.38358-2.04-10.08215-2.62914-4.62142l-1.53117-.13643C41.98483-4.52131,53.874,2.58344,44.77148,12.47058Z"/><polygon class="cls-1" points="37.552 11.372 39.75 4.938 43.045 5.722 41.633 11.969 37.552 11.372"/><polygon class="cls-1" points="38.337 6.821 43.202 7.605 42.871 9.243 37.968 7.936 38.337 6.821"/><path class="cls-2" d="M16.57663,49.11362C18.53583,35.26646,20.11718,23.11584,19.654,15.317A54.507,54.507,0,0,1,13.3594,29.53044l-1.77566-1.356A50.31907,50.31907,0,0,0,19.654,9.94725l9.52336-.41964c2.11042,9.24984,5.969,7.03362,4.88429-.55951l2.51783-.41964c.41963,9.37193-5.003,13.19433-7.9732,4.19638-.99628,9.798,1.09012,22.83943,2.57224,36.089L28.60625,48.694a169.99593,169.99593,0,0,0-2.141-20.00283l-4.79867-.13988A98.00933,98.00933,0,0,0,19.6112,49.2535Z"/><polygon class="cls-2" points="22.228 10.507 22.544 4.772 25.704 4.772 26.335 10.367 22.228 10.507"/><polygon class="cls-2" points="21.665 6.8 26.633 6.479 26.691 7.625 21.841 7.991 21.665 6.8"/></svg>