<svg id="Layer_1" data-name="Layer 1" xmlns="http://www.w3.org/2000/svg" width="50" height="50" viewBox="0 0 50 50"><defs><style>.cls-1{fill:none;stroke:#006193;stroke-miterlimit:10;stroke-width:2px;stroke-dasharray:0.99552 0.99552;}.cls-2{fill:#006193;}</style></defs><circle class="cls-1" cx="37.34517" cy="13.38866" r="9.50901" transform="translate(1.47093 30.32847) rotate(-45)"/><path class="cls-2" d="M40.49459,8.01351l-.455,2.13618a2.59176,2.59176,0,0,0-1.91317-.65551,2.561,2.561,0,0,0-2.03592.90228,2.98749,2.98749,0,0,0-.62466,1.27245H39.708l-.24678,1.19534h-4.1496q-.00773.17736-.00772.455,0,.26993.01543.563h3.926l-.24678,1.19533H35.48127a3.03474,3.03474,0,0,0,.59381,1.29558,2.50421,2.50421,0,0,0,2.00507.91,3.12965,3.12965,0,0,0,2.36046-.91v2.35982a5.16282,5.16282,0,0,1-2.33733.50127,4.857,4.857,0,0,1-3.70167-1.54236,5.23453,5.23453,0,0,1-1.3033-2.61431H31.957l.24678-1.19533h.75576q-.00771-.18509-.00771-.39331,0-.35473.01542-.62465H31.957l.24678-1.19534h.91771a5.27429,5.27429,0,0,1,1.28787-2.568,5.53948,5.53948,0,0,1,6.08527-1.08737Z"/><path class="cls-2" d="M37.34516,23.54194a10.15329,10.15329,0,1,1,10.1533-10.15329A10.15329,10.15329,0,0,1,37.34516,23.54194ZM49.24221,13.38865a11.897,11.897,0,1,0-11.897,11.897A11.897,11.897,0,0,0,49.24221,13.38865Z"/><circle class="cls-1" cx="12.65483" cy="17.65957" r="9.509" transform="translate(-8.78069 14.12068) rotate(-45)"/><path class="cls-2" d="M15.80426,12.28444l-.455,2.13618a2.5918,2.5918,0,0,0-1.91318-.65551,2.561,2.561,0,0,0-2.03592.90228,2.98759,2.98759,0,0,0-.62466,1.27246h4.24215l-.24678,1.19533h-4.1496q-.00771.17738-.00771.455,0,.26992.01542.563h3.926l-.24678,1.19533H10.79094a3.03484,3.03484,0,0,0,.59381,1.29559,2.50423,2.50423,0,0,0,2.00507.91,3.12968,3.12968,0,0,0,2.36046-.91v2.35981a5.1628,5.1628,0,0,1-2.33732.50127,4.857,4.857,0,0,1-3.70168-1.54236A5.23443,5.23443,0,0,1,8.408,19.34847H7.26664l.24677-1.19533h.75576q-.00771-.18509-.00771-.3933,0-.35475.01542-.62466H7.26664l.24677-1.19533h.91771a5.27428,5.27428,0,0,1,1.28787-2.568A5.00393,5.00393,0,0,1,13.55177,11.814,5.04821,5.04821,0,0,1,15.80426,12.28444Z"/><path class="cls-2" d="M12.65484,27.81288a10.1533,10.1533,0,1,1,10.15329-10.1533A10.1533,10.1533,0,0,1,12.65484,27.81288Zm11.897-10.1533a11.897,11.897,0,1,0-11.897,11.89705A11.897,11.897,0,0,0,24.55188,17.65958Z"/><circle class="cls-1" cx="28.45137" cy="36.61135" r="9.50902" transform="translate(-7.65048 7.5162) rotate(-13.28256)"/><path class="cls-2" d="M31.60079,31.23621l-.455,2.13617a2.5918,2.5918,0,0,0-1.91317-.6555,2.561,2.561,0,0,0-2.03592.90228,2.98749,2.98749,0,0,0-.62466,1.27245h4.24215L30.56741,36.087h-4.1496q-.00773.17736-.00772.455,0,.26993.01543.563h3.926l-.24678,1.19533H26.58747a3.03474,3.03474,0,0,0,.59381,1.29558,2.50421,2.50421,0,0,0,2.00507.91,3.12965,3.12965,0,0,0,2.36046-.91v2.35982a5.1628,5.1628,0,0,1-2.33732.50127,4.857,4.857,0,0,1-3.70168-1.54236,5.23457,5.23457,0,0,1-1.3033-2.61431H23.06316l.24678-1.19533h.75576q-.00771-.18508-.00771-.39331,0-.35473.01542-.62465H23.06316l.24678-1.19534h.91771a5.27429,5.27429,0,0,1,1.28787-2.568,5.00391,5.00391,0,0,1,3.83278-1.55779A5.04824,5.04824,0,0,1,31.60079,31.23621Z"/><path class="cls-2" d="M28.45136,46.76464a10.15329,10.15329,0,1,1,10.1533-10.15329A10.15329,10.15329,0,0,1,28.45136,46.76464ZM40.34841,36.61135a11.897,11.897,0,1,0-11.897,11.89705A11.897,11.897,0,0,0,40.34841,36.61135Z"/></svg>