<svg id="Layer_1" data-name="Layer 1" xmlns="http://www.w3.org/2000/svg" width="50" height="50" viewBox="0 0 50 50"><defs><style>.cls-1{fill:#fff;}.cls-1,.cls-2,.cls-3,.cls-4,.cls-5{stroke:#006193;stroke-miterlimit:10;}.cls-1,.cls-3,.cls-4,.cls-5{stroke-width:2px;}.cls-2,.cls-3,.cls-4,.cls-5{fill:none;}.cls-3{stroke-dasharray:1;}.cls-5{stroke-dasharray:1.0403 1.0403;}</style></defs><ellipse class="cls-1" cx="25.34503" cy="13.87324" rx="11.11214" ry="7.82901"/><line class="cls-2" x1="32.66894" y1="8.06462" x2="32.66894" y2="19.68186"/><line class="cls-2" x1="18.02111" y1="8.06462" x2="18.02111" y2="19.68186"/><line class="cls-2" x1="29.65299" y1="13.87324" x2="21.03707" y2="13.87324"/><line class="cls-3" x1="29.65299" y1="13.87324" x2="21.03707" y2="13.87324"/><circle class="cls-1" cx="12.65482" cy="32.84991" r="10.57356"/><path class="cls-2" d="M5.1977,25.37327a10.57356,10.57356,0,0,1,0,14.95327"/><path class="cls-2" d="M20.11194,40.32654a10.57356,10.57356,0,0,1,0-14.95327"/><path class="cls-4" d="M5.19771,25.3733q.17779.1777.34534.36175"/><path class="cls-5" d="M6.20546,26.53767a10.57844,10.57844,0,0,1-.32678,13.04046"/><path class="cls-4" d="M5.54305,39.96479q-.16753.18393-.34534.36176"/><path class="cls-4" d="M20.112,40.32655q-.17779-.1778-.34534-.36176"/><path class="cls-5" d="M19.10421,39.16218a10.57845,10.57845,0,0,1,.32672-13.04047"/><path class="cls-4" d="M19.76662,25.73505q.16755-.18392.34534-.36175"/><circle class="cls-1" cx="37.34518" cy="32.84991" r="10.57356"/><path class="cls-2" d="M29.88806,25.37327a10.57356,10.57356,0,0,1,0,14.95327"/><path class="cls-2" d="M44.8023,40.32654a10.57356,10.57356,0,0,1,0-14.95327"/><line class="cls-2" x1="47.91873" y1="32.84991" x2="26.77162" y2="32.84991"/><line class="cls-2" x1="37.34518" y1="22.27635" x2="37.34518" y2="43.42346"/></svg>