<svg id="Layer_1" data-name="Layer 1" xmlns="http://www.w3.org/2000/svg" width="65" height="100" viewBox="0 0 65 100"><defs><style>.cls-1{fill:#e199a3;}.cls-2{fill:#b40019;}.cls-3{fill:#d1eee3;}</style></defs><rect class="cls-1" x="21.6644" y="7.09043" width="19.1582" height="3.19303"/><path class="cls-2" d="M40.89331,10.35419c-5.73418.19588-13.54109.50985-19.22881.64354l-.69471.01936c-.00779-.45273-.09446-3.40357-.1054-3.92657l-.0196-.73108.8197-.069a115.86016,115.86016,0,0,1,19.69745.35693c-.11345,1.26524-.31269,2.646-.46863,3.70685Zm-.14141-.14142c-.13636-1.1723-.30951-2.17633-.4253-3.12225l.49591.49591a115.47574,115.47574,0,0,1-19.158.30408l.79993-.8-.08575,3.19287-.71418-.71423c6.33836.15344,12.67452.46675,19.08741.64361Z"/><path class="cls-3" d="M7.578,20.973H9.15179l1.816,1.21065L11.452,26.7841s1.29034,4.96364,6.254,4.96364,5.97352-5.32683,5.97352-5.32683V21.1688H24.8423"/><path class="cls-2" d="M7.57794,20.873l1.57374-.08783.04711-.00262.05732.03424L11.1319,21.9372c.14852.07878.10119.06993.13037.21558-.00234-.05947.74233,4.86733.68692,4.50216,2.11579,5.87194,9.12981,5.59322,10.83667-.40353a54.443,54.443,0,0,1,.62982-5.45355c.47374.08316.95452.16645,1.42661.27093v.2c-.38758.085-.77509.15686-1.16266.2248l.32471-.32471c.291,1.77029.46745,3.53961.58868,5.3103a7.78052,7.78052,0,0,1-2.21246,4.42987c-3.97795,3.65481-10.37178,1.005-11.43736-4.039-.02684-.021-.25006-4.6292-.27-4.65534l.13018.21528L9.04767,21.1294l.104.03149L7.57794,21.073v-.2Z"/><path class="cls-1" d="M14.96421,26.4996h1.54805V18.39222a2.289,2.289,0,0,1,2.289-2.289H24.8423v1.824H18.80125V26.4996h1.633"/><path class="cls-2" d="M14.96424,26.3996l1.54791-.06628-.1662.1662L16.156,22.06379c-.02111-.73535-.1195-2.616-.14243-3.32677a2.956,2.956,0,0,1,3.284-3.27521c1.29828-.04131,5.02482-.16441,6.33584-.20717.0361.96907.0947,2.55441.13073,3.5235-2.317.09255-4.64646.23861-6.96283.17249l1.02332-1.02326q-.05814,2.14306-.21765,4.28608c-.10687,1.42871-.238,2.85736-.44995,4.28607l-.35572-.35566c.54432.07813,1.08863.14985,1.63294.25574v.2c-.64121.1246-1.287.20363-1.92969.29835a75.66192,75.66192,0,0,1-.7267-8.97059l-.0269-.99292,1.05035-.03058c2.01361-.05853,4.02723.04688,6.04084.13306l-.8902.89026.06769-1.82385.82251.82251-4.43567-.14551c-.36058,0-1.29983-.05056-1.64764-.05063a1.70794,1.70794,0,0,0-1.61335,1.08811,9.01159,9.01159,0,0,0-.18205,2.02813l-.09493,2.21784-.18994,4.43573-.00744.17315-.159-.00677-1.54791-.06629v-.2Z"/><polygon class="cls-3" points="35.04 49.284 16.182 49.284 19.712 57.993 31.227 57.993 35.04 49.284"/><rect class="cls-3" x="23.47147" y="41.43063" width="2.86407" height="9.01029"/><path class="cls-1" d="M26.04935,35.42408a2.289,2.289,0,0,0-2.289,2.289v3.00439H23.016v1.96523h4.03588L26.928,40.71745h-.87866V37.81511H40.85074a2.289,2.289,0,0,0,2.289-2.289V18.39222a2.289,2.289,0,0,0-2.289-2.289H37.64469v1.824h3.20605V35.42408Z"/><path class="cls-2" d="M26.04932,35.52405a2.19927,2.19927,0,0,0-2.16852,1.90766c-.06357.9385.00427,2.32567-.02,3.28568l.00005.10055h-.10064l-.74414.00012.10046-.10053.03528,1.965-.13574-.13574,4.03564-.09-.22528.24-.18256-1.9613.284.26666-.87848.02625-.30414.00909-.00689-.32013-.06232-2.90216-.00787-.36761.38122-.00574c1.96523-.02677,11.47935-.179,13.22821-.18487.35133-.03779,1.56323.03157,1.87916-.04935a1.70773,1.70773,0,0,0,1.371-1.80515l-.034-2.64563-.13593-10.58258-.03827-2.64563c-.023-.28883.00353-1.01012-.02822-1.25483a1.423,1.423,0,0,0-1.37877-1.27092c-.3642.01485-2.84.04844-3.26788.06661l.96619-.96615.033,1.82385-.99914-.99915,3.20587-.04083,1.04919-.01336c-.0365,3.26526-.009,6.5377-.10864,9.80182-.08085,3.09946-.275,6.20089-.4375,9.30017-4.56127-.19147-10.79355-.425-15.30438-.45179Zm0-.2c4.2822-.01453,10.46061-.25723,14.80136-.43239l-.53232.53225c-.37057-5.82828-.51991-11.65928-.50762-17.49659l1.03991,1.03992c-.76174-.015-3.52061-.041-4.223-.05378l.01782-.98632c.00811-.58265.04206-2.23073.05078-2.81064.647.007,2.9125.06784,3.59418.07753a3.2726,3.2726,0,0,1,3.67868,2.9443c-.01389,2.741-.15616,11.73429-.18354,14.61847l-.034,2.64562a2.93684,2.93684,0,0,1-3.15112,2.984c-.82565-.00911-3.11023-.03071-3.96845-.04l-10.58258-.1582.37317-.37317-.06232,2.90216-.31085-.31085.87848.02624.27564.00824.0086.25867.06519,1.96875.00811.24536-.2337-.00519-4.03564-.09-.13831-.00312.00238-.13287.03522-1.965.00183-.1007h.09888l.74414.00012-.10041.1004c.03355-1.00466-.04322-2.31759.02206-3.31125a2.40017,2.40017,0,0,1,2.36741-2.082Z"/><rect class="cls-1" x="24.8423" y="10.28346" width="12.8024" height="10.88534"/><path class="cls-2" d="M37.574,10.35419l-12.73157.45355.52417-.52417.2757,10.88514-.79987-.79993a114.06753,114.06753,0,0,1,12.80218-.16335l-.96325.96328c.09175-3.0035.59215-7.73783.89264-10.81452Zm.14142-.14142c.46024,3.91493.833,7.89932.92312,11.882a118.11079,118.11079,0,0,1-13.79611-.126l-.81842-.07631.01831-.72381.2757-10.88514.01373-.54235.51068.01794,12.873.45361Z"/><rect class="cls-1" x="26.71007" y="12.26262" width="3.96642" height="1.82404"/><path class="cls-2" d="M30.60578,12.33332c-1.45984.15545-2.72779.4143-3.89563.54632l.617-.61694c.06757.608.13526,1.21588.18292,1.82385l-.79992-.79992a7.50182,7.50182,0,0,1,3.96624-.00334l-.80322.80326c.14252-.41424.45667-.89666.73261-1.75323Zm.14142-.14142a5.92965,5.92965,0,0,1,.83522,2.47237,8.56855,8.56855,0,0,1-4.87228.2224L25.87,14.5976c.06894-.98819.18629-2.01417.297-3.00061,1.57406.11432,3.27151.41642,4.5802.59491Z"/><rect class="cls-1" x="31.8105" y="12.26262" width="3.96642" height="1.82404"/><path class="cls-2" d="M31.73981,12.1919c1.308-.17848,3.00678-.48076,4.58014-.5949.11046.98685.22827,2.01207.297,3.0006l-.8402.28906a8.56767,8.56767,0,0,1-4.87231-.22241,5.93862,5.93862,0,0,1,.83532-2.47235Zm.14142.14142c.27588.85657.59009,1.339.73254,1.75323l-.80316-.80322a7.50174,7.50174,0,0,1,3.96619.00326l-.79987.8c.04767-.608.11536-1.21588.18292-1.82385l.617.61694c-1.16779-.132-2.43579-.39087-3.89557-.54632Z"/><polygon class="cls-1" points="33.055 61.083 38.674 49.284 41.789 49.284 41.789 46.194 36.145 46.194 31.227 57.993 19.712 57.993 14.793 46.194 9.15 46.194 9.15 49.284 12.265 49.284 17.883 61.083 33.055 61.083"/><path class="cls-2" d="M33.00177,60.9983l5.39649-11.845.07782-.17078.19757-.00311,3.11481-.04883-.35358.35357-.0484-3.0899.402.402-5.64307.08844.45257-.3017L31.82025,58.24012l-.15741.39062-.43634.00513-11.51489.13538-.50824.006-.21045-.48505L13.904,46.56482l.8888.59247-5.64307.06061,1.02362-1.02362c.00727,1.03.025,2.05994.0119,3.0899L9.14972,48.24866c.51627-.00481,3.33133.026,3.76019.02293,1.96594,4.1237,3.78267,8.3186,5.67469,12.47707l-.70154-.44293c4.91691.15953,10.16136.414,15.11871.69257Zm.10675.16906c-5.02909.29413-10.17259.54166-15.2254.69255l-.47461.01357-.22717-.4566c-1.94061-3.90052-3.95276-7.767-5.83454-11.69544l.91773.57941c-.66393.00529-3.50208.02053-4.13724.02527-.03277-1.69874-.00616-3.46783.0059-5.16663,1.15337.01439,6.12754.06446,7.31446.07862l.23424.58556,4.74817,11.86939-.71845-.47882,11.51489.13531-.5935.39563L35.69245,46.0055l.13226-.30689.32068.005,5.64307.08844.40838.00641c-.01116.52537-.04993,3.31445-.06031,3.84491l-.34807-.0055-3.11481-.04882.275-.17365-5.84015,11.752Z"/><line class="cls-1" x1="24.97558" y1="48.05759" x2="24.80237" y2="53.39124"/><path class="cls-2" d="M25.0755,48.06086a20.3461,20.3461,0,0,1,.613,2.68951c.07043.44727.31884.90027.15661,1.33991a2.53338,2.53338,0,0,1-.94287,1.3042L24.7024,53.388a2.06361,2.06361,0,0,1-.61292-2.68956,20.358,20.358,0,0,1,.78612-2.64413l.1999.00654Z"/><line class="cls-1" x1="24.0413" y1="43.55245" x2="23.86809" y2="47.1851"/><path class="cls-2" d="M24.14118,43.5572a1.84506,1.84506,0,0,1,.85571.951c.13324.30976-.14386.6-.2431.89863a10.54209,10.54209,0,0,1-.78582,1.783l-.19978-.00959a10.544,10.544,0,0,1-.61262-1.8496c-.0703-.30677-.31859-.622-.15642-.91773.10168-.22347.5937-.89516,1.142-.85577Z"/><rect class="cls-1" x="37.93814" y="68.1141" width="3.54342" height="2.20504"/><path class="cls-2" d="M37.86743,70.38984c-.15373-.72824-.36462-1.80518-.49157-2.72248,1.36643-.11076,2.74-.26524,4.10559-.35327l.51983-.033.28034.83307a8.90309,8.90309,0,0,1,.21294,3.29737,9.0119,9.0119,0,0,1-4.62713-1.02173Zm.14142-.14142a17.62185,17.62185,0,0,1,3.47266-.98627l-1.057,1.05689a6.02238,6.02238,0,0,1,.257-2.20484l.79993.79987c-1.18109-.07489-2.36212-.20343-3.54321-.30493l.49493-.49494c-.12848.61658-.295,1.29987-.42432,2.13422Z"/><rect class="cls-3" x="30.79254" y="84.89904" width="8.2616" height="5.21535"/><polygon class="cls-1" points="30.793 82.064 30.793 90.114 39.054 90.114 39.054 82.064 41.325 82.064 41.325 92.949 28.522 92.949 28.522 82.064 30.793 82.064"/><path class="cls-2" d="M30.86322,81.99335l.23224,8.12091-.30285-.30279L39.054,89.606l-.50824.50824-.15222-8.05011-.01221-.64795.67285-.01275c.47914-.00627,2.51188-.0495,2.95868-.0559l.01514.7166.22961,10.88507.01923.91193-.95246.0213c-4.541.13057-9.22434.13995-13.75457-.04464.12652-3.92575.29294-7.85008.639-11.77366l.02929-.33313c.89689.05377,1.84275.17353,2.62506.26233Zm-.14142.14142-2.19958.24255.31323-.31317c.31934,3.62836.48761,7.25672.60926,10.88507l-.92249-.92242c4.20288-.15055,8.58774-.13225,12.80218-.01053l-.933.93295L40.621,82.06415l.70336.70337-2.2702-.04291.66052-.66046-.15222,8.05011-.00982.52088-.49866-.01239-8.26141-.20545-.31159-.00775.00861-.29529.23217-7.97949Z"/><path class="cls-2" d="M28.52216,81.96406c4.55639-.41816,9.12207-.561,13.68134-.93222l.08233,1.03231a22.79484,22.79484,0,0,1-.86126,8.25819h-.20008a22.79637,22.79637,0,0,1-.86133-8.25817l.96124.96117c-4.26969-.31536-8.53692-.47228-12.80224-.86136v-.19991Z"/><rect class="cls-3" x="33.75373" y="77.96968" width="2.86407" height="9.01029"/><path class="cls-1" d="M33.76959,76.12247v-3.6026a2.74477,2.74477,0,0,1,2.74475-2.74475H48.59289v2.86713H42.02654a2.17207,2.17207,0,0,1-4.211,0H36.51434v3.48022h.85931l.1358,1.84721H32.8006V76.12247Z"/><path class="cls-2" d="M33.69886,76.05176l-.10614-2.47027a4.62541,4.62541,0,0,1,.29476-2.52588,3.05,3.05,0,0,1,2.1608-1.58734c.80383-.113,1.76129-.071,2.54883-.12035l9.99567-.2635.6734-.01776.01739.70855c.0191.55659.07239,3.10853.08852,3.60553-.221.00677-6.92358.20025-7.34543.21271l.92091-.71344a3.15332,3.15332,0,0,1-6.13035.01988l.99815.77333-1.301-.02685,1.004-1.004c-.04,1.16-.07612,2.32-.13373,3.48l-.8703-.87024c.41626.0216,1.25152.0682,1.66632.09.025,1.105.04777,2.278.03545,3.38452-1.91488-.11736-3.83629-.2628-5.747-.48432.06437-.76506.10347-1.53433.186-2.29852.06442.00313.95156.101,1.04364.108Zm.14141.14142c-.32287.032-.67688.07294-1.03955.093l.16352-.16358c.06286.61567.09692,1.23133.14605,1.847L32.80072,77.66c1.56952-.17542,3.1391-.30164,4.70862-.402l-.70972.76379c-.09289-.61212-.16973-1.22546-.24768-1.83874l.8216.76343c-.41888.02059-1.26578.0698-1.68408.09093-.096-1.77559-.15186-3.60091-.2132-5.3778.90981-.01815,2.21206-.04608,3.12055-.06445l.217.78967a1.19808,1.19808,0,0,0,2.29155.0199l.23744-.73346c.0303-.02689,6.95745.22156,7.25.2099l-.761.761.07037-2.867.69056.69062-9.99567-.26355c-.67845-.00093-1.81138-.098-2.44524-.05116A2.46463,2.46463,0,0,0,33.99935,72.386l-.05294,1.27965-.10614,2.52753Z"/><path class="cls-1" d="M42.16792,29.11628H52.7047V69.281H48.06689v-.96226H46.66777v6.21189L48.06689,74.34V73.13377H52.7047A3.68835,3.68835,0,0,0,56.393,69.44543V29.86548a3.68835,3.68835,0,0,0-3.68834-3.68835H42.16792"/><path class="cls-2" d="M42.16791,29.0163l10.53668-.22919L53.031,28.78c.02084.35548.33668,40.13509.3527,40.50087l.00582.67339c-.25233.00049-4.91081.04155-5.32251.04382l-.71179.00586-.00537-.72308-.00721-.962.72419.72418-1.39893.01044.73468-.73462.04639,6.21167-.88654-.77392,1.39752-.20105-.68469.7843-.00922-1.206-.006-.79273.807-.00824c.24405.0117,4.60706-.05658,4.65838-.049a2.82739,2.82739,0,0,0,2.75773-2.78979l-.01676-2.05735c-.061-6.87119-.14133-13.87012-.09565-20.73083-.00231-5.52826.10127-11.05646.17329-16.58472a2.91539,2.91539,0,0,0-1.41237-2.77431c-.8553-.58933-2.66644-.40155-3.67132-.51958-2.76409-.131-5.52825-.29662-8.29235-.55023v-.2c2.7641-.2536,5.52826-.41919,8.29236-.55029l2.07306-.10748a4.5252,4.5252,0,0,1,4.14316,2.31229,4.82092,4.82092,0,0,1,.56562,2.38954c.072,5.52827.17562,11.05647.1733,16.58473.04769,7.55541-.04523,15.25618-.11888,22.81946a4.58563,4.58563,0,0,1-3.92448,4.40873c-.7845.11116-4.44861-.01822-5.3051.00055l.80085-.80082-.00922,1.206-.00531.69708-.67956.08746c-.53151.06385-1.76923.2309-2.2937.29516.00955-1.1338.04916-6.68919.05853-7.841.80363.00586,2.05443.0154,2.858.02137-.00471.4134-.00828,1.26485-.01257,1.681l-.717-.717,4.63763.03815-.67883.67883.34979-40.16449.329.329-10.53668-.22919V29.0163Z"/><line class="cls-1" x1="39.72181" y1="64.94073" x2="39.72181" y2="67.99628"/><path class="cls-2" d="M39.82184,64.94074a8.05223,8.05223,0,0,1,.7,1.52777c.08489.25464.34789.50928.2.76386a1.44414,1.44414,0,0,1-1.1.76395,1.70584,1.70584,0,0,1-.9-.76395c-.14782-.25458.11512-.50922.2-.76386a7.21818,7.21818,0,0,1,.3-.76392c.13465-.25457.2403-.50921.4-.76385Z"/><line class="cls-1" x1="44.00393" y1="65.05113" x2="35.44002" y2="65.05113"/><path class="cls-2" d="M44.00391,65.15113a39.9824,39.9824,0,0,1-6.42289.90024,4.7384,4.7384,0,0,1-2.141-.90024v-.2a4.7,4.7,0,0,1,4.282-.69992c1.43539.16782,2.86283.40578,4.28193.69991v.2Z"/></svg>